<?xml version="1.0" encoding="utf-8"?>
<!-- Generator: Adobe Illustrator 23.0.2, SVG Export Plug-In . SVG Version: 6.00 Build 0)  -->
<svg version="1.1" id="Слой_1" xmlns="http://www.w3.org/2000/svg" xmlns:xlink="http://www.w3.org/1999/xlink" x="0px" y="0px"
	 viewBox="0 0 130 26" style="enable-background:new 0 0 130 26;" xml:space="preserve">
<style type="text/css">
	.st0{enable-background:new    ;}
	.st1{fill-rule:evenodd;clip-rule:evenodd;}
</style>
<title>Ресурс 7</title>
<g>
	<g class="st0">
		<path d="M38.4,20.1L33.9,4.9h-0.1c0.1,1.6,0.1,2.6,0.1,3.1v12.2h-1.1V3.4h1.7l3.8,12.8c0.3,1.1,0.6,2.1,0.7,2.9H39
			c0.1-0.6,0.3-1.5,0.7-2.9l3.7-12.8h1.7v16.8H44V8c0-0.5,0-1.5,0.1-3.1h-0.1l-4.4,15.2H38.4z"/>
	</g>
	<g class="st0">
		<path d="M52.1,20.4c-1.3,0-2.3-0.6-3-1.7C48.4,17.6,48,16,48,14c0-2.1,0.3-3.7,0.9-4.9c0.6-1.1,1.5-1.7,2.7-1.7
			c1,0,1.8,0.5,2.4,1.5c0.6,1,0.9,2.3,0.9,4v1h-5.9c0,1.8,0.3,3.2,0.8,4.1s1.2,1.4,2.3,1.4c0.8,0,1.6-0.3,2.5-0.8v1.1
			C53.8,20.1,53,20.4,52.1,20.4z M51.6,8.4c-1.5,0-2.3,1.5-2.5,4.5h4.8c0-1.4-0.2-2.5-0.6-3.3C52.9,8.8,52.3,8.4,51.6,8.4z"/>
	</g>
	<g class="st0">
		<path d="M61.1,20.4c-1.2,0-2.2-0.5-2.8-1.6s-0.9-2.7-0.9-4.8c0-2.1,0.3-3.7,1-4.9c0.6-1.1,1.6-1.7,2.8-1.7c0.8,0,1.4,0.1,1.9,0.4
			l-0.4,1c-0.5-0.2-1-0.4-1.4-0.4c-1.8,0-2.7,1.8-2.7,5.5c0,3.6,0.9,5.4,2.7,5.4c0.5,0,1.1-0.1,1.8-0.4v0.9
			c-0.3,0.1-0.6,0.2-0.9,0.3C61.7,20.3,61.4,20.4,61.1,20.4z"/>
	</g>
	<g class="st0">
		<path d="M68.3,20.4c-1.2,0-2.2-0.5-2.8-1.6c-0.6-1.1-0.9-2.7-0.9-4.8c0-2.1,0.3-3.7,1-4.9C66.1,8,67,7.4,68.3,7.4
			c0.8,0,1.4,0.1,1.9,0.4l-0.4,1c-0.5-0.2-1-0.4-1.4-0.4c-1.8,0-2.7,1.8-2.7,5.5c0,3.6,0.9,5.4,2.7,5.4c0.5,0,1.1-0.1,1.8-0.4v0.9
			c-0.3,0.1-0.6,0.2-0.9,0.3C68.9,20.3,68.5,20.4,68.3,20.4z"/>
	</g>
	<g class="st0">
		<path d="M75.7,20.4c-1.3,0-2.3-0.6-3-1.7S71.6,16,71.6,14c0-2.1,0.3-3.7,0.9-4.9c0.6-1.1,1.5-1.7,2.7-1.7c1,0,1.8,0.5,2.4,1.5
			c0.6,1,0.9,2.3,0.9,4v1h-5.9c0,1.8,0.3,3.2,0.8,4.1s1.2,1.4,2.3,1.4c0.8,0,1.6-0.3,2.5-0.8v1.1C77.4,20.1,76.6,20.4,75.7,20.4z
			 M75.2,8.4c-1.5,0-2.3,1.5-2.5,4.5h4.8c0-1.4-0.2-2.5-0.6-3.3C76.5,8.8,75.9,8.4,75.2,8.4z"/>
	</g>
	<g class="st0">
		<path d="M82.4,7.7v5.4H87V7.7h1.1v12.4H87v-6h-4.6v6h-1.1V7.7H82.4z"/>
	</g>
	<g class="st0">
		<path d="M98.6,24.4h-1.1v-4.2h-6.3v4.2h-1.1v-5.3h1c0.6-1.5,1.1-3.2,1.5-5.2c0.3-2,0.5-4,0.5-6.2h4.2v11.4h1.3V24.4z M96.2,19.1
			V8.7h-2.1c0,1.8-0.2,3.8-0.6,5.8c-0.4,2-0.8,3.6-1.3,4.7H96.2z"/>
	</g>
	<g class="st0">
		<path d="M106,7.7v5.8l3.3-5.8h1.2l-3.5,5.8l3.8,6.6h-1.3l-3.6-6.5v6.5h-1.1v-6.5l-3.6,6.5h-1.3l3.8-6.6l-3.5-5.8h1.2l3.3,5.8V7.7
			H106z"/>
	</g>
	<g class="st0">
		<path d="M116,20.4c-1.3,0-2.3-0.6-3-1.7s-1.1-2.7-1.1-4.7c0-2.1,0.3-3.7,0.9-4.9c0.6-1.1,1.5-1.7,2.7-1.7c1,0,1.8,0.5,2.4,1.5
			c0.6,1,0.9,2.3,0.9,4v1H113c0,1.8,0.3,3.2,0.8,4.1s1.2,1.4,2.3,1.4c0.8,0,1.6-0.3,2.5-0.8v1.1C117.7,20.1,116.8,20.4,116,20.4z
			 M115.5,8.4c-1.5,0-2.3,1.5-2.5,4.5h4.8c0-1.4-0.2-2.5-0.6-3.3C116.7,8.8,116.2,8.4,115.5,8.4z"/>
	</g>
	<g class="st0">
		<path d="M125.5,20.4c-0.6,0-1.2-0.2-1.7-0.5c-0.5-0.3-0.9-0.8-1.2-1.4h-0.1l0.1,1.4v6h-1.1V7.7h0.9l0.1,1.7h0.1
			c0.3-0.6,0.7-1.1,1.2-1.4c0.5-0.3,1-0.5,1.6-0.5c2.4,0,3.6,2.1,3.6,6.4c0,2.1-0.3,3.7-0.9,4.8C127.5,19.8,126.6,20.4,125.5,20.4z
			 M125.3,8.5c-0.9,0-1.6,0.4-2,1.2c-0.4,0.8-0.7,2.1-0.7,3.8v0.4c0,1.9,0.2,3.3,0.7,4.2s1.1,1.3,2.1,1.3c0.9,0,1.5-0.4,1.9-1.3
			c0.4-0.9,0.6-2.3,0.6-4.2c0-1.8-0.2-3.1-0.6-4C126.9,8.9,126.2,8.5,125.3,8.5z"/>
	</g>
</g>
<path class="st1" d="M19,23.8l-7-6.2l-0.5,0.3l0.5,1.7l-3.6,2.6l0.7-5.6l10.7-10h-0.5l-12.6,8L0,12.4L23,2.2l0.7,0.2L19,23.8z"/>
</svg>
