<svg width="0" height="0" class="hidden">
    <symbol viewBox="0 0 15.13 24" id="icon-attach">
        <path d="M.03 20C1.13 11.3 1.8 7.89 2.31 4.52S6.08-.44 9.57.11s6 2.59 5.57 6.31-1.78 12-1.78 12l-2-.21s1.28-8.81 1.65-11.69-1.87-4.12-3.68-4.36c-2.65-.35-4.92 1-5.16 2.92S2.82 14 1.91 20.09c-.37 2.42 5.48 3.52 5.89.42.1-.75 1.26-10.75 1.45-12.29.1-.87-.79-1.07-.95-1.09A1 1 0 0 0 7.05 8c0-.42-.8 10-.8 10l-2-.27s.84-10.54.8-10.25A2.94 2.94 0 0 1 8.46 5.1a3 3 0 0 1 2.72 3.18C11 9.78 9.84 19.85 9.75 20.64 9.16 25.78-.56 24.57.03 20z"></path>
    </symbol>
    <symbol viewBox="0 0 24 24" id="icon-smile">
        <path d="M15.2 6.4l8.3-.2.5 4.2-9.5-.9.7-3.1zM18.5 18c-3.7 2.1-10.1 1.5-12.7-1.9l1.9-2c1.9 1.5 6.2 1.9 9.4.5l1.4 3.4zM.1 12.1l2.7-2.4L0 7.3l1.7-2.6 6.1 4.1.1 1.4-6 4.3-1.8-2.4z" fill-rule="evenodd" clip-rule="evenodd"></path>
    </symbol>
    <symbol viewBox="0 0 512 512" id="icon-menu">
        <circle cx="256" cy="256" r="64"></circle>
        <circle cx="256" cy="448" r="64"></circle>
        <circle cx="256" cy="64" r="64"></circle>
    </symbol>
    <symbol id="icon-pencil-square" viewBox="0 0 24 24">
        <path clip-rule="evenodd" d="M19.186 2.09c.521.25 1.136.612 1.625 1.101.49.49.852 1.104 1.1 1.625.313.654.11 1.408-.401 1.92l-7.214 7.213c-.31.31-.688.54-1.105.675l-4.222 1.352a.75.75 0 0 1-.943-.943l1.353-4.221a2.75 2.75 0 0 1 .674-1.105l7.214-7.214c.512-.512 1.266-.714 1.92-.402zm.211 2.516a3.608 3.608 0 0 0-.828-.586l-6.994 6.993a1.002 1.002 0 0 0-.178.242L9.9 14.102l2.846-1.496a.99.99 0 0 0 .242-.178l6.994-6.994a3.61 3.61 0 0 0-.586-.828zM4.999 5.5A.5.5 0 0 1 5.47 5l5.53.005a1 1 0 0 0 0-2L5.5 3A2.5 2.5 0 0 0 3 5.5v12.577c0 .76.082 1.185.319 1.627.224.419.558.753.977.977.442.237.866.319 1.627.319h12.154c.76 0 1.185-.082 1.627-.319.42-.224.754-.558.978-.977.236-.442.318-.866.318-1.627V13a1 1 0 1 0-2 0v5.077c0 .459-.021.57-.082.684a.364.364 0 0 1-.157.157c-.113.06-.225.082-.684.082H5.923c-.459 0-.57-.022-.684-.082a.363.363 0 0 1-.157-.157c-.06-.113-.082-.225-.082-.684V5.5z"></path>
    </symbol>
</svg>